<svg width="188" height="84" viewBox="0 0 188 84" fill="none" xmlns="http://www.w3.org/2000/svg">
<g filter="url(#filter0_di_4803_23142)">
<rect x="20" y="10" width="148" height="44" rx="10" fill="white" fill-opacity="0.1"/>
<g clip-path="url(#clip0_4803_23142)">
<path d="M52 41H43C42.45 41 42 40.55 42 40V24C42 23.45 42.45 23 43 23H52V41Z" fill="white" fill-opacity="0.3"/>
<path d="M61 41H52V23H61C61.55 23 62 23.45 62 24V40C62 40.55 61.55 41 61 41Z" fill="white" fill-opacity="0.3"/>
<path d="M44 32H50" stroke="white" stroke-opacity="0.6" stroke-width="1.2" stroke-miterlimit="10"/>
<path d="M44 28H50" stroke="white" stroke-opacity="0.6" stroke-width="1.2" stroke-miterlimit="10"/>
<path d="M44 36H50" stroke="white" stroke-opacity="0.6" stroke-width="1.2" stroke-miterlimit="10"/>
<path d="M54 32H60" stroke="white" stroke-opacity="0.6" stroke-width="1.2" stroke-miterlimit="10"/>
<path d="M54 28H60" stroke="white" stroke-opacity="0.6" stroke-width="1.2" stroke-miterlimit="10"/>
<path d="M80.09 27.565C79.36 27.565 78.7 27.785 78.11 28.225C77.52 28.655 77.05 29.25 76.7 30.01C76.35 30.76 76.175 31.625 76.175 32.605C76.175 33.685 76.44 34.51 76.97 35.08C77.5 35.65 78.175 35.935 78.995 35.935C79.465 35.935 79.88 35.87 80.24 35.74C80.61 35.61 80.97 35.455 81.32 35.275L81.56 36.565C81.19 36.735 80.78 36.88 80.33 37C79.88 37.12 79.37 37.18 78.8 37.18C77.98 37.18 77.26 37.005 76.64 36.655C76.03 36.305 75.555 35.8 75.215 35.14C74.875 34.47 74.705 33.66 74.705 32.71C74.705 31.81 74.835 30.975 75.095 30.205C75.365 29.425 75.745 28.745 76.235 28.165C76.725 27.585 77.305 27.135 77.975 26.815C78.655 26.485 79.4 26.32 80.21 26.32C80.8 26.32 81.32 26.4 81.77 26.56C82.22 26.72 82.595 26.885 82.895 27.055L82.25 28.225C81.95 28.035 81.63 27.88 81.29 27.76C80.96 27.63 80.56 27.565 80.09 27.565ZM86.1095 37.18C85.3695 37.18 84.7295 37.03 84.1895 36.73C83.6495 36.43 83.2295 36.015 82.9295 35.485C82.6395 34.945 82.4945 34.335 82.4945 33.655C82.4945 32.785 82.6695 32 83.0195 31.3C83.3795 30.6 83.8795 30.045 84.5195 29.635C85.1595 29.225 85.9145 29.02 86.7845 29.02C87.5245 29.02 88.1645 29.17 88.7045 29.47C89.2445 29.77 89.6595 30.185 89.9495 30.715C90.2495 31.245 90.3995 31.855 90.3995 32.545C90.3995 33.405 90.2245 34.19 89.8745 34.9C89.5245 35.6 89.0245 36.155 88.3745 36.565C87.7345 36.975 86.9795 37.18 86.1095 37.18ZM86.1545 35.98C86.7545 35.98 87.2645 35.835 87.6845 35.545C88.1145 35.245 88.4445 34.845 88.6745 34.345C88.9045 33.845 89.0195 33.285 89.0195 32.665C89.0195 32.205 88.9295 31.795 88.7495 31.435C88.5695 31.065 88.3095 30.77 87.9695 30.55C87.6295 30.33 87.2195 30.22 86.7395 30.22C86.1495 30.22 85.6395 30.37 85.2095 30.67C84.7795 30.96 84.4495 31.355 84.2195 31.855C83.9895 32.355 83.8745 32.915 83.8745 33.535C83.8745 33.985 83.9645 34.395 84.1445 34.765C84.3245 35.135 84.5845 35.43 84.9245 35.65C85.2645 35.87 85.6745 35.98 86.1545 35.98ZM96.4082 30.205C96.0582 30.205 95.6782 30.335 95.2682 30.595C94.8582 30.855 94.4782 31.26 94.1282 31.81C93.7882 32.35 93.5432 33.045 93.3932 33.895L92.8532 37H91.5032L92.8682 29.2H94.1732L93.8432 31C94.1532 30.4 94.5682 29.92 95.0882 29.56C95.6182 29.2 96.1732 29.02 96.7532 29.02C97.4332 29.02 97.9782 29.23 98.3882 29.65C98.7982 30.06 99.0032 30.565 99.0032 31.165C99.0032 31.415 98.9732 31.73 98.9132 32.11L98.0582 37H96.7082L97.5332 32.335C97.5832 32.095 97.6132 31.92 97.6232 31.81C97.6332 31.69 97.6382 31.58 97.6382 31.48C97.6382 31.09 97.5232 30.78 97.2932 30.55C97.0732 30.32 96.7782 30.205 96.4082 30.205ZM103.951 37.18C103.211 37.18 102.571 37.03 102.031 36.73C101.491 36.43 101.071 36.015 100.771 35.485C100.481 34.945 100.336 34.335 100.336 33.655C100.336 32.785 100.511 32 100.861 31.3C101.221 30.6 101.721 30.045 102.361 29.635C103.001 29.225 103.756 29.02 104.626 29.02C105.366 29.02 106.006 29.17 106.546 29.47C107.086 29.77 107.501 30.185 107.791 30.715C108.091 31.245 108.241 31.855 108.241 32.545C108.241 33.405 108.066 34.19 107.716 34.9C107.366 35.6 106.866 36.155 106.216 36.565C105.576 36.975 104.821 37.18 103.951 37.18ZM103.996 35.98C104.596 35.98 105.106 35.835 105.526 35.545C105.956 35.245 106.286 34.845 106.516 34.345C106.746 33.845 106.861 33.285 106.861 32.665C106.861 32.205 106.771 31.795 106.591 31.435C106.411 31.065 106.151 30.77 105.811 30.55C105.471 30.33 105.061 30.22 104.581 30.22C103.991 30.22 103.481 30.37 103.051 30.67C102.621 30.96 102.291 31.355 102.061 31.855C101.831 32.355 101.716 32.915 101.716 33.535C101.716 33.985 101.806 34.395 101.986 34.765C102.166 35.135 102.426 35.43 102.766 35.65C103.106 35.87 103.516 35.98 103.996 35.98ZM115.255 30.775C115.005 30.615 114.735 30.485 114.445 30.385C114.155 30.275 113.835 30.22 113.485 30.22C112.935 30.22 112.45 30.365 112.03 30.655C111.62 30.945 111.3 31.34 111.07 31.84C110.84 32.33 110.725 32.885 110.725 33.505C110.725 34.265 110.915 34.87 111.295 35.32C111.685 35.76 112.205 35.98 112.855 35.98C113.235 35.98 113.57 35.935 113.86 35.845C114.15 35.755 114.415 35.65 114.655 35.53L114.82 36.715C114.57 36.825 114.265 36.93 113.905 37.03C113.555 37.13 113.13 37.18 112.63 37.18C111.98 37.18 111.405 37.035 110.905 36.745C110.415 36.455 110.03 36.05 109.75 35.53C109.48 35 109.345 34.385 109.345 33.685C109.345 32.845 109.515 32.075 109.855 31.375C110.205 30.665 110.695 30.095 111.325 29.665C111.965 29.235 112.72 29.02 113.59 29.02C114.06 29.02 114.475 29.08 114.835 29.2C115.205 29.31 115.53 29.45 115.81 29.62L115.255 30.775ZM119.385 37.18C118.725 37.18 118.14 37.04 117.63 36.76C117.13 36.47 116.735 36.06 116.445 35.53C116.165 34.99 116.025 34.355 116.025 33.625C116.025 32.795 116.195 32.03 116.535 31.33C116.885 30.63 117.375 30.07 118.005 29.65C118.645 29.23 119.39 29.02 120.24 29.02C120.82 29.02 121.31 29.13 121.71 29.35C122.12 29.57 122.435 29.855 122.655 30.205C122.875 30.555 122.985 30.93 122.985 31.33C122.985 31.88 122.855 32.335 122.595 32.695C122.335 33.055 122 33.335 121.59 33.535C121.18 33.725 120.735 33.86 120.255 33.94C119.785 34.02 119.335 34.06 118.905 34.06C118.635 34.06 118.365 34.05 118.095 34.03C117.835 34 117.605 33.97 117.405 33.94C117.485 34.6 117.72 35.105 118.11 35.455C118.5 35.805 119 35.98 119.61 35.98C120.11 35.98 120.555 35.915 120.945 35.785C121.335 35.655 121.665 35.525 121.935 35.395L122.055 36.595C121.755 36.735 121.375 36.87 120.915 37C120.455 37.12 119.945 37.18 119.385 37.18ZM120.135 30.16C119.665 30.16 119.24 30.28 118.86 30.52C118.48 30.75 118.165 31.07 117.915 31.48C117.675 31.88 117.515 32.34 117.435 32.86C117.665 32.9 117.895 32.935 118.125 32.965C118.365 32.985 118.625 32.995 118.905 32.995C119.745 32.995 120.41 32.88 120.9 32.65C121.39 32.41 121.635 32.005 121.635 31.435C121.635 31.085 121.495 30.785 121.215 30.535C120.945 30.285 120.585 30.16 120.135 30.16ZM128.693 30.205C128.343 30.205 127.963 30.335 127.553 30.595C127.143 30.855 126.763 31.26 126.413 31.81C126.073 32.35 125.828 33.045 125.678 33.895L125.138 37H123.788L125.153 29.2H126.458L126.128 31C126.438 30.4 126.853 29.92 127.373 29.56C127.903 29.2 128.458 29.02 129.038 29.02C129.718 29.02 130.263 29.23 130.673 29.65C131.083 30.06 131.288 30.565 131.288 31.165C131.288 31.415 131.258 31.73 131.198 32.11L130.343 37H128.993L129.818 32.335C129.868 32.095 129.898 31.92 129.908 31.81C129.918 31.69 129.923 31.58 129.923 31.48C129.923 31.09 129.808 30.78 129.578 30.55C129.358 30.32 129.063 30.205 128.693 30.205ZM136.236 37.18C135.496 37.18 134.856 37.03 134.316 36.73C133.776 36.43 133.356 36.015 133.056 35.485C132.766 34.945 132.621 34.335 132.621 33.655C132.621 32.785 132.796 32 133.146 31.3C133.506 30.6 134.006 30.045 134.646 29.635C135.286 29.225 136.041 29.02 136.911 29.02C137.651 29.02 138.291 29.17 138.831 29.47C139.371 29.77 139.786 30.185 140.076 30.715C140.376 31.245 140.526 31.855 140.526 32.545C140.526 33.405 140.351 34.19 140.001 34.9C139.651 35.6 139.151 36.155 138.501 36.565C137.861 36.975 137.106 37.18 136.236 37.18ZM136.281 35.98C136.881 35.98 137.391 35.835 137.811 35.545C138.241 35.245 138.571 34.845 138.801 34.345C139.031 33.845 139.146 33.285 139.146 32.665C139.146 32.205 139.056 31.795 138.876 31.435C138.696 31.065 138.436 30.77 138.096 30.55C137.756 30.33 137.346 30.22 136.866 30.22C136.276 30.22 135.766 30.37 135.336 30.67C134.906 30.96 134.576 31.355 134.346 31.855C134.116 32.355 134.001 32.915 134.001 33.535C134.001 33.985 134.091 34.395 134.271 34.765C134.451 35.135 134.711 35.43 135.051 35.65C135.391 35.87 135.801 35.98 136.281 35.98ZM147.09 30.895C146.8 30.695 146.475 30.52 146.115 30.37C145.765 30.22 145.365 30.145 144.915 30.145C144.445 30.145 144.08 30.225 143.82 30.385C143.56 30.545 143.43 30.755 143.43 31.015C143.43 31.165 143.47 31.31 143.55 31.45C143.64 31.58 143.795 31.72 144.015 31.87C144.245 32.02 144.565 32.2 144.975 32.41C145.655 32.75 146.16 33.105 146.49 33.475C146.82 33.835 146.985 34.28 146.985 34.81C146.985 35.34 146.845 35.78 146.565 36.13C146.285 36.48 145.91 36.745 145.44 36.925C144.97 37.095 144.44 37.18 143.85 37.18C143.24 37.18 142.7 37.105 142.23 36.955C141.77 36.795 141.37 36.59 141.03 36.34L141.795 35.23C142.065 35.45 142.385 35.635 142.755 35.785C143.125 35.935 143.53 36.01 143.97 36.01C144.47 36.01 144.865 35.915 145.155 35.725C145.445 35.535 145.59 35.3 145.59 35.02C145.59 34.76 145.48 34.52 145.26 34.3C145.05 34.08 144.635 33.815 144.015 33.505C143.515 33.255 143.125 33.015 142.845 32.785C142.565 32.545 142.37 32.29 142.26 32.02C142.15 31.75 142.095 31.44 142.095 31.09C142.095 30.69 142.215 30.335 142.455 30.025C142.695 29.715 143.03 29.47 143.46 29.29C143.89 29.11 144.385 29.02 144.945 29.02C145.505 29.02 146.005 29.095 146.445 29.245C146.895 29.385 147.29 29.555 147.63 29.755L147.09 30.895Z" fill="white"/>
</g>
</g>
<defs>
<filter id="filter0_di_4803_23142" x="0" y="0" width="188" height="84" filterUnits="userSpaceOnUse" color-interpolation-filters="sRGB">
<feFlood flood-opacity="0" result="BackgroundImageFix"/>
<feColorMatrix in="SourceAlpha" type="matrix" values="0 0 0 0 0 0 0 0 0 0 0 0 0 0 0 0 0 0 127 0" result="hardAlpha"/>
<feOffset dy="10"/>
<feGaussianBlur stdDeviation="10"/>
<feColorMatrix type="matrix" values="0 0 0 0 0 0 0 0 0 0 0 0 0 0 0 0 0 0 0.1 0"/>
<feBlend mode="normal" in2="BackgroundImageFix" result="effect1_dropShadow_4803_23142"/>
<feBlend mode="normal" in="SourceGraphic" in2="effect1_dropShadow_4803_23142" result="shape"/>
<feColorMatrix in="SourceAlpha" type="matrix" values="0 0 0 0 0 0 0 0 0 0 0 0 0 0 0 0 0 0 127 0" result="hardAlpha"/>
<feMorphology radius="0.5" operator="erode" in="SourceAlpha" result="effect2_innerShadow_4803_23142"/>
<feOffset/>
<feComposite in2="hardAlpha" operator="arithmetic" k2="-1" k3="1"/>
<feColorMatrix type="matrix" values="0 0 0 0 1 0 0 0 0 1 0 0 0 0 1 0 0 0 0.2 0"/>
<feBlend mode="normal" in2="shape" result="effect2_innerShadow_4803_23142"/>
</filter>
<clipPath id="clip0_4803_23142">
<rect width="108" height="24" fill="white" transform="translate(40 20)"/>
</clipPath>
</defs>
</svg>
